<svg xmlns="http://www.w3.org/2000/svg" xmlns:xlink="http://www.w3.org/1999/xlink" id="Layer_3" x="0" y="0" version="1.1" viewBox="0 0 1345.7 869.8" xml:space="preserve" style="enable-background:new 0 0 1345.7 869.8"><style type="text/css">.st0{fill:url(#SVGID_1_)}.st1{fill:#fff;fill-opacity:.1}</style><title>11</title><linearGradient id="SVGID_1_" x1="1929.133" x2="1981.319" y1="-7857.529" y2="-6828.717" gradientTransform="matrix(8.000000e-02 1.38 1.2 -7.000000e-02 9334.8105 -2775.6802)" gradientUnits="userSpaceOnUse"><stop offset="0" style="stop-color:#74d1fb"/><stop offset="1" style="stop-color:#329ef7"/></linearGradient><path d="M0,869.8V0h1345.7v873.1L0,869.8z" class="st0"/><path d="M-35.4,428c0,0,75.2-140.7,62.5-330.4S147.7-110.9,197.6-73.7C231-48.7,318.9,137.7,449.1,176.4	s241.2,38.8,270.2,64c28.3,24.6,81.1,54.3-240.4,203.1S55.4,573.8,14.5,561.9C-12.2,554.2-65.9,522.5-35.4,428z" class="st1"/><path d="M1391.1,324.5c72.3,11.7,96,109.2,43.7,176c-15.1,19.2-34.3,41.6-58.6,67c-116.6,121.8-166.3,354.3-190.1,416.1	c-42.6,110.5-213.2,357.3-264.4,141.7c-67-281.9-317.1-281.5-264.3-411.1c45.5-111.7,196.7-228.9,276.5-275.4	c74.2-43.2,278.6-137.6,454.6-114.7C1389.3,324.2,1390.2,324.4,1391.1,324.5z" class="st1"/></svg>