<svg xmlns="http://www.w3.org/2000/svg" xmlns:xlink="http://www.w3.org/1999/xlink" id="_x34_4583e6e-3c87-4cd0-878b-9f64620e8dae" x="0" y="0" version="1.1" viewBox="0 0 303.5 602.4" xml:space="preserve" style="enable-background:new 0 0 303.5 602.4"><style type="text/css">.st0{fill:#f1f6fa}.st1{fill:#fff}.st2{fill:#e6e8ec}.st3{clip-path:url(#SVGID_2_)}.st4{fill:url(#SVGID_3_)}.st5{fill:url(#SVGID_4_)}</style><title>order confirmed</title><path d="M296.9,136.7h4.3c1.3,0,2.3,1,2.3,2.3v68.4c0,1.3-1,2.3-2.3,2.3h-4.3c-1.3,0-2.3-1-2.3-2.3v-68.4	C294.6,137.7,295.6,136.7,296.9,136.7z" class="st0"/><path d="M2.5,79.4h0.4c1.3,0,2.3,1,2.3,2.3v19.5c0,1.3-1,2.3-2.3,2.3H2.5c-1.3,0-2.3-1-2.3-2.3V81.7	C0.2,80.5,1.2,79.4,2.5,79.4z" class="st0"/><path d="M2.3,123.5h1c1.3,0,2.3,1,2.3,2.3V163c0,1.3-1,2.3-2.3,2.3h-1c-1.3,0-2.3-1-2.3-2.3v-37.3	C0,124.5,1,123.5,2.3,123.5z" class="st0"/><path d="M2.4,179.9h0.7c1.3,0,2.3,1,2.3,2.3v37.6c0,1.3-1,2.3-2.3,2.3H2.4c-1.3,0-2.3-1-2.3-2.3v-37.6	C0.1,181,1.1,179.9,2.4,179.9z" class="st0"/><path d="M42,0h218.4c21.5,0,39,17.5,39,39v524.4c0,21.5-17.5,39-39,39H42c-21.5,0-39-17.5-39-39V39C3,17.5,20.4,0,42,0z" class="st0"/><path d="M257.6,15.7h-34v4.1c0,10.7-8.7,19.4-19.4,19.4c0,0,0,0,0,0H96.1c-10.7,0-19.4-8.7-19.4-19.4c0,0,0,0,0,0v-4.1	H44.8c-13,0-23.5,10.5-23.5,23.5v0v524c0,13,10.5,23.5,23.5,23.5h212.7c13,0,23.5-10.5,23.5-23.5V39.2	C281.1,26.2,270.6,15.7,257.6,15.7C257.6,15.7,257.6,15.7,257.6,15.7z" class="st1"/><path d="M126.5,18h33.6c2.1,0,3.9,1.7,3.9,3.9v0.7c0,2.1-1.7,3.9-3.9,3.9h-33.6c-2.1,0-3.9-1.7-3.9-3.9v-0.7	C122.6,19.7,124.3,18,126.5,18z" class="st2"/><circle cx="175" cy="22.2" r="4.8" class="st2"/><g><defs><path id="SVGID_1_" d="M257.6,15.7h-34v4.1c0,10.7-8.7,19.4-19.4,19.4c0,0,0,0,0,0H96.1c-10.7,0-19.4-8.7-19.4-19.4c0,0,0,0,0,0 v-4.1H44.8c-13,0-23.5,10.5-23.5,23.5v0v524c0,13,10.5,23.5,23.5,23.5h212.7c13,0,23.5-10.5,23.5-23.5V39.3 C281.1,26.2,270.6,15.7,257.6,15.7C257.6,15.7,257.6,15.7,257.6,15.7z"/></defs><clipPath id="SVGID_2_"><use xlink:href="#SVGID_1_" style="overflow:visible"/></clipPath><g class="st3"><linearGradient id="SVGID_3_" x1="911.597" x2="1342.848" y1="442.624" y2="364.779" gradientTransform="matrix(0.985 -0.1728 -0.1728 -0.985 -997.9031 1050.0632)" gradientUnits="userSpaceOnUse"><stop offset="0" style="stop-color:#6a72e4"/><stop offset="1" style="stop-color:#9199ee"/></linearGradient><path d="M-124.5,396.4c0,0,100.4-29.4,183.4-122.4s152.9-39.2,158.4,1.3c3.7,27.1-43.3,153.8-1.7,232.6 s92.5,130.7,94,155.9c1.5,24.5,11.8,62.9-205.5-19.3s-255.3-138.5-268.5-163.2C-173,465.2-182.8,425.5-124.5,396.4z" class="st4"/><linearGradient id="SVGID_4_" x1="1156.672" x2="1723.995" y1="441.063" y2="385.261" gradientTransform="matrix(1 0 0 -1 -1089.4399 806.88)" gradientUnits="userSpaceOnUse"><stop offset="0" style="stop-color:#74d1fb"/><stop offset="1" style="stop-color:#329ef7"/></linearGradient><path d="M66.7,512.1c0,0,54.6-102.1,45.4-239.8S199.6,121,235.8,148c24.2,18.1,88,153.4,182.6,181.5 c94.5,28.1,175,28.2,196.1,46.5c20.5,17.8,58.9,39.4-174.5,147.5s-307.3,94.5-337,85.9C83.5,603.7,44.6,580.7,66.7,512.1z" class="st5"/></g></g></svg>